<svg viewBox="0 0 100 125">
    <path d="M24.241,15.61A13.344,13.344,0,1,0,37.584,28.954,13.359,13.359,0,0,0,24.241,15.61ZM13.048,28.954A11.21,11.21,0,0,1,22.6,17.882V40.025A11.209,11.209,0,0,1,13.048,28.954ZM24.754,40.133V31.041l7.728,5.477A11.163,11.163,0,0,1,24.754,40.133ZM33.78,34.8l-9.026-6.4V17.775A11.185,11.185,0,0,1,33.78,34.8ZM47.333,48.24H40.958a1.075,1.075,0,0,0-1.075,1.076V60.289a1.075,1.075,0,0,0,1.075,1.075h6.375a1.075,1.075,0,0,0,1.075-1.075V49.316A1.075,1.075,0,0,0,47.333,48.24ZM46.257,59.213H42.034V50.391h4.223Zm-2.111-17.66A4.034,4.034,0,0,0,47.7,35.6l5.852-5.6a4.031,4.031,0,0,0,5.453-1.271l4.055,1.278c0,.047,0,.1,0,.143a4.037,4.037,0,1,0,7.588-1.92L76.508,22.6a4.036,4.036,0,1,0-1.491-1.55l-5.865,5.637a4.03,4.03,0,0,0-5.444,1.276l-4.055-1.278c0-.047,0-.095,0-.143a4.038,4.038,0,1,0-7.592,1.912L46.213,34.05a4.036,4.036,0,1,0-2.067,7.5ZM78.567,17.245a1.886,1.886,0,1,1-1.886,1.885A1.888,1.888,0,0,1,78.567,17.245ZM67.093,28.273a1.886,1.886,0,1,1-1.885,1.886A1.888,1.888,0,0,1,67.093,28.273ZM55.619,24.657a1.886,1.886,0,1,1-1.885,1.886A1.888,1.888,0,0,1,55.619,24.657ZM44.146,35.63a1.886,1.886,0,1,1-1.886,1.886A1.887,1.887,0,0,1,44.146,35.63ZM36.064,48.467a1.075,1.075,0,0,1-1.075,1.075h-21.5a1.076,1.076,0,0,1,0-2.151h21.5A1.075,1.075,0,0,1,36.064,48.467Zm0,6.114a1.075,1.075,0,0,1-1.075,1.076h-21.5a1.076,1.076,0,0,1,0-2.151h21.5A1.075,1.075,0,0,1,36.064,54.581Zm0,6.115a1.075,1.075,0,0,1-1.075,1.076h-21.5a1.076,1.076,0,0,1,0-2.151h21.5A1.075,1.075,0,0,1,36.064,60.7ZM64.8,51.72A10.776,10.776,0,1,0,75.577,62.5,10.788,10.788,0,0,0,64.8,51.72Zm0,19.4A8.625,8.625,0,1,1,73.425,62.5,8.634,8.634,0,0,1,64.8,71.12ZM93.874,86.138,84.1,76.365a3.813,3.813,0,0,0-2.182-1.082L77.026,70.39a14.381,14.381,0,0,0,1.054-1.934h5.068a7.1,7.1,0,0,0,7.1-7.1V14.4a7.1,7.1,0,0,0-7.1-7.1H12.1A7.1,7.1,0,0,0,5,14.4V61.36a7.1,7.1,0,0,0,7.1,7.1H35.207L32.243,79.517h-2A6.6,6.6,0,0,0,23.655,86.1v5.511a1.075,1.075,0,0,0,1.076,1.075H70.515a1.075,1.075,0,0,0,1.076-1.075V86.1A6.6,6.6,0,0,0,65,79.517H63l-.723-2.7a14.718,14.718,0,0,0,2.521.222,14.549,14.549,0,0,0,7.893-2.321l4.895,4.895A3.818,3.818,0,0,0,78.67,81.8l9.773,9.773a3.84,3.84,0,0,0,5.431-5.431ZM76.456,53.781V32.006h4.223V59.213h-1.7A14.4,14.4,0,0,0,76.456,53.781ZM7.154,61.36V14.4A4.951,4.951,0,0,1,12.1,9.459H83.148A4.951,4.951,0,0,1,88.093,14.4V61.36a4.95,4.95,0,0,1-4.945,4.945h-4.3a14.607,14.607,0,0,0,.506-3.809c0-.38-.019-.757-.048-1.132h2.449a1.075,1.075,0,0,0,1.076-1.075V30.93a1.075,1.075,0,0,0-1.076-1.076H75.38A1.076,1.076,0,0,0,74.3,30.93V51.481a14.425,14.425,0,0,0-2.948-1.98V41.959a1.075,1.075,0,0,0-1.075-1.076H63.906a1.076,1.076,0,0,0-1.076,1.076v6.12a14.445,14.445,0,0,0-2.948.713V38.343a1.075,1.075,0,0,0-1.075-1.076H52.432a1.075,1.075,0,0,0-1.075,1.076V56.908a14.634,14.634,0,0,0-.6,9.4H12.1A4.95,4.95,0,0,1,7.154,61.36ZM69.205,48.622a14.583,14.583,0,0,0-4.223-.674V43.034h4.223ZM54.511,52.206q-.533.534-1,1.112v-13.9h4.223V49.774A14.6,14.6,0,0,0,54.511,52.206ZM69.44,86.1v4.435H25.807V86.1a4.441,4.441,0,0,1,4.435-4.436H65A4.441,4.441,0,0,1,69.44,86.1Zm-8.664-6.587H34.47l2.964-11.061H51.522a14.562,14.562,0,0,0,8.362,7.733Zm-4.744-8.253a12.4,12.4,0,1,1,17.537,0A12.319,12.319,0,0,1,56.032,71.264ZM75.09,72.785c.216-.216.422-.439.623-.666L79.4,75.8a3.706,3.706,0,0,0-1.289,1.289l-3.682-3.682C74.65,73.208,74.874,73,75.09,72.785ZM92.353,90.048a1.7,1.7,0,0,1-2.389,0l-9.773-9.773a1.689,1.689,0,0,1,2.389-2.389l9.773,9.773a1.7,1.7,0,0,1,0,2.389Z"/>
</svg>