<svg xmlns="http://www.w3.org/2000/svg" xmlns:xlink="http://www.w3.org/1999/xlink" version="1.1" x="0px" y="0px" viewBox="0 0 100 100" xml:space="preserve">
<path d="M64.8,35.3h-8l-0.5,1.9c-2-1.7-4.3-2.5-6.7-2.5c-3.8,0-7.1,1.5-9.9,4.6c-2.7,3.1-4.1,7-4.1,11.8c0,4.7,1.2,8.5,3.6,11.4  c2.4,2.9,5.4,4.3,8.8,4.3c3.1,0,5.7-1.3,7.9-3.9c1.6,2.5,4.1,3.7,7.2,3.7c4.7,0,8.7-2,12.2-6.1c3.4-4.1,5.1-9,5.1-14.8  c0-7.3-2.8-13.5-8.4-18.7c-5.6-5.2-12.5-7.7-20.8-7.7c-8.7,0-16.2,2.9-22.3,8.8C22.7,34,19.6,41.3,19.6,50c0,8.4,2.9,15.6,8.8,21.6  c5.8,6,13.7,9,23.6,9c6,0,11.8-1.2,17.6-3.7c1.9-0.8,2.8-2.9,2-4.8v0c-0.8-1.9-3-2.9-4.9-2c-5,2.1-9.9,3.2-14.7,3.2  c-7.6,0-13.5-2.3-17.7-6.9c-4.2-4.6-6.3-10.1-6.3-16.3c0-6.8,2.2-12.4,6.7-17c4.5-4.5,9.9-6.8,16.4-6.8c6,0,11,1.9,15.2,5.6  c4.1,3.7,6.2,8.4,6.2,14.1c0,3.9-0.9,7.1-2.8,9.7c-1.9,2.6-3.9,3.9-5.9,3.9c-1.1,0-1.7-0.6-1.7-1.8c0-1,0.1-2.1,0.2-3.4L64.8,35.3z   M53.5,55.8c-1.4,1.9-3.1,2.9-5.1,2.9c-1.3,0-2.4-0.7-3.2-2.1c-0.8-1.4-1.2-3.1-1.2-5.2c0-2.6,0.6-4.6,1.7-6.2  c1.1-1.6,2.6-2.4,4.3-2.4c1.5,0,2.8,0.6,3.9,1.8c1.1,1.2,1.7,2.8,1.7,4.7C55.7,51.8,55,53.9,53.5,55.8z"/>
<defs>
    <linearGradient id="grad1" x1="0" x2="0" y1="0" y2="1">
        <stop offset="0%" class="stop1" />
        <stop offset="25%" class="stop2"/>
        <stop offset="50%" class="stop3"/>
        <stop offset="100%" class="stop4" />
    </linearGradient>
</defs>
<style>
    * {
        fill: url(#grad1)
    }
    
    .stop1 {
      stop-color: #001233;
    }
    .stop2 {
      stop-color: #001845;
    }
    .stop3 {
      stop-color: #211565;
    }
    .stop4 {
      stop-color: #25177A;
    }
</style>
</svg>