<svg width="28" height="28" viewBox="0 0 28 28" fill="none" xmlns="http://www.w3.org/2000/svg">
<path id="path1" d="M14.0001 0C6.26903 0 0 6.42658 0 14.3544C0 20.6967 4.01144 26.0773 9.57413 27.9753C10.2738 28.1082 10.5307 27.6639 10.5307 27.2848C10.5307 26.9425 10.5176 25.8117 10.5117 24.6123C6.61677 25.4806 5.79492 22.9186 5.79492 22.9186C5.15808 21.2594 4.24048 20.8184 4.24048 20.8184C2.97031 19.9274 4.33622 19.9456 4.33622 19.9456C5.7421 20.047 6.48238 21.4249 6.48238 21.4249C7.73102 23.6194 9.75749 22.9849 10.5564 22.6183C10.682 21.6904 11.0449 21.0572 11.4452 20.6988C8.33569 20.3357 5.06672 19.1049 5.06672 13.6047C5.06672 12.0376 5.61364 10.757 6.50928 9.75183C6.3639 9.39022 5.88473 7.9303 6.64488 5.95307C6.64488 5.95307 7.82051 5.56726 10.4959 7.42448C11.6126 7.10633 12.8103 6.94692 14.0001 6.94152C15.1898 6.94692 16.3884 7.10633 17.5073 7.42448C20.1795 5.56726 21.3535 5.95307 21.3535 5.95307C22.1155 7.9303 21.6361 9.39022 21.4907 9.75183C22.3883 10.757 22.9315 12.0375 22.9315 13.6047C22.9315 19.118 19.6564 20.332 16.539 20.6873C17.0411 21.1328 17.4885 22.0064 17.4885 23.3455C17.4885 25.2661 17.4723 26.812 17.4723 27.2848C17.4723 27.6668 17.7243 28.1144 18.434 27.9734C23.9936 26.0732 28 20.6945 28 14.3544C28 6.42658 21.7318 0 14.0001 0Z"/>
<path id="path2" d="M5.24357 20.4482C5.21282 20.5194 5.10324 20.5408 5.00365 20.4919C4.90209 20.4451 4.84499 20.3478 4.87793 20.2762C4.90813 20.2028 5.01771 20.1824 5.11905 20.2317C5.22084 20.2784 5.27881 20.3766 5.24357 20.4482ZM5.93223 21.0781C5.86547 21.1416 5.73492 21.1121 5.64631 21.0118C5.55474 20.9118 5.53761 20.778 5.60536 20.7135C5.6742 20.6501 5.8008 20.6797 5.89259 20.7799C5.98417 20.8811 6.00196 21.0141 5.93212 21.0783L5.93223 21.0781ZM6.4047 21.8842C6.31884 21.9453 6.17851 21.888 6.09188 21.7604C6.00613 21.6328 6.00613 21.4797 6.09375 21.4184C6.18071 21.357 6.31884 21.4122 6.40668 21.5388C6.49232 21.6686 6.49232 21.8217 6.40459 21.8843L6.4047 21.8842ZM7.20361 22.8178C7.12686 22.9045 6.96348 22.8813 6.84379 22.7629C6.72148 22.6472 6.68733 22.4829 6.7643 22.3961C6.84193 22.3092 7.0063 22.3336 7.12686 22.4511C7.24841 22.5666 7.28552 22.732 7.20372 22.8178H7.20361ZM8.23617 23.1331C8.20246 23.2454 8.04501 23.2965 7.88646 23.2488C7.72813 23.1996 7.62448 23.0679 7.65643 22.9543C7.68937 22.8411 7.84748 22.7879 8.00724 22.839C8.16535 22.888 8.26922 23.0187 8.23628 23.1331H8.23617ZM9.41148 23.2667C9.41543 23.3851 9.28092 23.4833 9.11447 23.4854C8.94702 23.4891 8.81164 23.3933 8.80988 23.2769C8.80988 23.1574 8.94131 23.0601 9.10865 23.0573C9.2751 23.0539 9.41148 23.149 9.41148 23.2667ZM10.5659 23.2213C10.5859 23.3368 10.4702 23.4555 10.3049 23.487C10.1424 23.5174 9.99199 23.4461 9.97124 23.3316C9.95103 23.2132 10.069 23.0947 10.2311 23.0639C10.3967 23.0344 10.5448 23.1039 10.5659 23.2213Z"/>
<style>
    * {
        fill: #ffffff;
    }
</style>
</svg>
