<svg width="164" height="146" viewBox="0 0 164 146" fill="none" xmlns="http://www.w3.org/2000/svg">
<path d="M1 142.173C16.4369 141.279 54.8274 114.85 91.4891 77.3705C111.844 53.5193 129.617 27.9552 140.755 9.91171C167.26 -15.6421 132.321 36.863 119.671 50.8377C105.816 65.3115 81.319 108.567 67.8655 129.196C63.0464 150.158 138.345 54.3314 122.081 96.2556C109.069 129.795 116.057 144.169 125.695 137.681C110.033 146.665 149.188 70.3026 160.634 92.2628C164.259 99.2179 139.55 131.692 149.188 142.173C142.924 136.982 148.184 121.044 151.598 113.724C138.586 133.289 128.908 139.843 125.695 140.675C104.009 145.866 112.643 112.055 119.671 94.5001C124.49 74.5362 90.154 126.701 62.444 142.173C47.1169 150.731 87.2641 91.0326 116.93 49.0599C108.766 58.9888 100.176 68.4899 91.4891 77.3705C62.6718 111.137 28.6774 141.471 1 142.173Z" fill="#2514EC"/>
<path d="M1 142.173C22.6861 140.917 89.6721 89.2677 133.526 27.3796C188.344 -49.9805 34.7339 157.645 62.444 142.173C90.154 126.701 124.49 74.5362 119.671 94.5001C112.643 112.055 104.009 145.866 125.695 140.675C128.908 139.843 138.586 133.289 151.598 113.724C148.184 121.044 142.924 136.982 149.188 142.173C139.55 131.692 164.259 99.2179 160.634 92.2629C149.188 70.3026 110.033 146.665 125.695 137.681C116.057 144.169 109.069 129.795 122.081 96.2556C138.345 54.3314 63.0464 150.158 67.8655 129.196C81.319 108.567 105.816 65.3115 119.671 50.8377C132.321 36.863 167.26 -15.6421 140.755 9.91171C113.848 53.4996 48.2275 140.975 1 142.173Z" stroke="#2514EC" stroke-width="5"/>
</svg>
