<svg xmlns="http://www.w3.org/2000/svg" data-name="Layer 1" viewBox="0 0 28 28" x="0px" y="0px">
<title>Name</title>
<circle cx="8" cy="11" r="4"/>
<path d="M10,16H6a5,5,0,0,0-5,5v4a1,1,0,0,0,1,1H14a1,1,0,0,0,1-1V21A5,5,0,0,0,10,16Z"/>
<path d="M30,15H18a1,1,0,0,1,0-2H30a1,1,0,0,1,0,2Z"/>
<path d="M30,19H18a1,1,0,0,1,0-2H30a1,1,0,0,1,0,2Z"/>
<path d="M24,23H18a1,1,0,0,1,0-2h6a1,1,0,0,1,0,2Z"/>
<defs>
    <linearGradient id="grad1" x1="0" x2="0" y1="0" y2="1">
        <stop offset="0%" class="stop1" />
        <stop offset="25%" class="stop2"/>
        <stop offset="50%" class="stop3"/>
        <stop offset="100%" class="stop4" />
    </linearGradient>
</defs>
<style>
    * {
        fill: url(#grad1)
    }
    
    .stop1 {
      stop-color: #001233;
    }
    .stop2 {
      stop-color: #001845;
    }
    .stop3 {
      stop-color: #211565;
    }
    .stop4 {
      stop-color: #25177A;
    }
</style>
</svg>