<svg xmlns="http://www.w3.org/2000/svg" version="1.1" viewBox="-5.0 -10.0 110.0 135.0">
 <path d="m55.281 88.223c0.45703-0.30078 1.0234-0.375 1.4648-0.19531 0.21875 0.089844 0.41406 0.09375 0.57812 0.023437 0.26172-0.11719 0.375-0.39844 0.375-0.39844 0.066406-0.24219 0.16406-0.50391 0.27344-0.77344 0.83594 0.92969 1.7891 1.4023 2.6367 1.6328-1 1.457-1.7148 2.6133-1.7031 2.8359 0.03125 0.59766-0.67578 1.707-1.3242 2.332-0.28516 0.27344-0.69922 0.58984-1.082 0.58984-0.019531 0-0.039062 0-0.0625-0.003906-0.99219-0.10156-2.0312-3.293-1.9922-4.5469 0.015626-0.61719 0.32422-1.1602 0.83594-1.4961zm-21.094-51.184h0.26172c4.2734 0 7.7109 1.5508 8.125 1.7461 0.03125-0.007812 1.4531 1.3945 2.332 1.8203 1.7695 0.85938 2.5781 4.7656 2.75 8.1367 0.10547 2.0781 1.3672 2.8086 2.0938 2.9141l7.7539 1.1484-0.007812 0.11719c-0.10938 1.3984-0.21875 2.2227-0.34766 2.5938-0.32813 0.875-0.62891 3.3438-0.34375 3.9922 0.14844 0.32031 0.28125 1 0.32031 1.3555l0.039062 0.27734 0.28125 0.046875c0.17969 0.03125 0.36719 0.046875 0.54688 0.046875 0.40625 0 1.1328-0.054687 2.2969-0.3125 0.0625-0.015625 0.054688-0.011719 0.054688-0.011719l0.26562-0.066406 0.0625-0.84766 0.10938-0.007813c0.92188-0.066406 4.0664-0.33594 5.7891-1.0703 0.44922-0.1875 0.95313-0.46094 0.86719-0.91406-0.03125-0.1875-0.10938-0.67969-2.2148-0.73438-0.21484 0.019531-0.35156 0.019531-0.48047 0.019531-0.80469 0-1.2812-0.25391-1.457-0.37109-1.4648-0.9375-1.707-1.4688-1.5273-3.3477l0.015626-0.14453 0.15234 0.039063 0.16016-0.035156c3.9766-0.90234 5.8594-3.4961 5.5938-7.7188 0-0.078126-0.003907-0.14844-0.007813-0.20703 0-0.042968-0.003906-0.082031-0.003906-0.11719 0.046875-1.2383-2.0078-5.6797-3.6406-8.2188-0.28516-0.44531-0.60547-0.83594-0.94922-1.1562l-0.17578-0.16406 0.23438-0.050781c1.0234-0.21484 1.7031-0.51172 1.9688-0.86328 0.13281-0.17188 0.30469-0.33203 0.50781-0.47266 0.054688-0.035157 0.10938-0.074219 0.16406-0.10547l0.0625-0.035157 14.805 7.8516 0.085938 0.046875-0.078125 0.33203-0.042969 0.1875c-0.34766 1.3008-0.69141 2.25-0.69531 2.2617l-0.03125 0.046875c-0.5 0.46484-2.3398 6.0039-3.0078 8.0977l-0.019531 0.035157c-0.003907 0.007812-0.41797 0.62891-0.054688 3.2891 0.36328 2.75-0.92969 3.8516-2.0781 4.8242l-0.13672 0.11719c-1.082 0.92188-0.65625 1.9414-0.64063 1.9727 0.67188 1.2188 0.96094 2.7617 1.2109 4.125 0.1875 1.0117 0.34766 1.8867 0.62891 2.375 0.63281 1.1133 1.4844 3.9492 1.582 4.2891 1.3867 1.4844 1.3555 3.625 1.3438 3.9141 0.21875 0.52734 2.7891 6.7969 3.0586 8.3242-0.53516 0.61328-1.3477 1.4258-2.4492 2.2031-1.6367-1.3203-1.6641-2.7852-1.6562-2.9883-0.51562-1.9648-1.6406-5.8008-2.2109-6.375-0.74609-0.74609-1.3281-2.1602-1.3281-2.8789 0-0.44531-2.5508-4.3047-4.2578-6.7734-0.28516 0.85938-1.2422 3.8086-1.2422 4.6016 0 0.94531-0.53906 3.6523-1.1875 4.6875-0.60156 0.96875-0.85156 2.1172-0.85547 2.1289l-0.011719 0.050781-0.042968 0.027344c-0.85938 0.57422-3.3945 3.8555-5.3047 6.5664-0.84766-0.16797-1.9102-0.625-2.7734-1.7773 1.5664-3.0508 4.7695-7.0195 5.168-7.5117-0.13281-1.043 0.4375-2.7969 0.53906-3.0938-0.41016-1.2422-0.16797-4.4258 0.007812-6.7578 0.082032-1.0859 0.15234-2.0234 0.12891-2.4023-0.015625-0.21484-0.10156-0.375-0.25781-0.48438-0.52344-0.375-1.6484-0.085937-1.668-0.082031-6.0352 1.0234-20.723-4.8477-22.367-5.5156-0.17578 0.62109-0.89844 3.2656-0.89844 4.8906 0 1.8633-1.1445 6.3984-1.1914 6.5742-0.003906 0.046875-0.49219 4.6133-0.003906 6.1367 0.28516 0.89062 3.2617 5.9453 5.7148 9.7852-0.61719 0.72266-1.5156 1.5703-2.7539 2.3555-1.1172-2.0352-5.7227-10.312-7.668-12.203-2.1953-2.1328-1.5625-3.6914-1.4727-3.8789 1.4531-6.9766 0.0625-9.9062-0.875-10.48-0.85937-0.51172-1.5039-1.5625-1.6484-1.8047-0.015625-0.003906-0.035156-0.007812-0.058594-0.007812-0.89453-0.22266-5.5234-1.7852-8.6094-10.871-0.41406-1.2148-0.60938-2.3711-0.57812-3.4414 0.12109-7.5391 10.473-10.004 14.23-10.051zm31.867-0.39062c-0.25 0.11328-0.5 0.20703-0.75391 0.3125-0.25781 0.097656-0.51953 0.17187-0.8125 0.26562 0.57031 0.22656 1.2227 0.11328 1.7695-0.12109 0.53906-0.25391 1.0352-0.61328 1.3555-1.1289-0.56641 0.20703-1.0547 0.45313-1.5586 0.67188zm-32.852 16.457c0.88672 0.98047 1.9297 1.7812 3.0156 2.4922-0.83203-1.0039-1.6719-1.9727-2.4102-2.9844-0.73828-1.0195-1.3867-2.0859-1.9062-3.2188-0.28516-0.5625-0.48828-1.1289-0.74219-1.7383-0.25781-0.63281-0.625-1.2578-1.1523-1.7422-0.51953-0.49609-1.2344-0.79297-1.9297-0.82422-0.69531-0.011719-1.3672 0.16406-1.918 0.51562 1.2617-0.33594 2.5781-0.03125 3.2969 0.85547 0.35547 0.44531 0.64453 0.95703 0.82422 1.5312 0.21094 0.58984 0.44141 1.2344 0.72266 1.8281 0.55859 1.1953 1.2969 2.3203 2.1992 3.2852zm-3.9219 7.1172c0.22656 0.42188 0.53125 0.79297 0.87109 1.1289 0.6875 0.65234 1.5703 1.1484 2.5586 1.1953-0.3125-0.39453-0.63281-0.69531-0.94141-1.0117l-0.92578-0.90625c-0.63281-0.58594-1.2305-1.1797-2.0078-1.7773 0.035156 0.5 0.21484 0.95313 0.44531 1.3711zm0.68359-2.7891c-0.41797-0.41797-0.83984-0.80078-1.2617-1.1719-0.41016-0.38672-0.83594-0.74219-1.2188-1.1406-0.39844-0.38281-0.77344-0.78125-1.1367-1.1992-0.34766-0.42578-0.71094-0.85156-1.0078-1.3555 0.019531 0.59375 0.23828 1.1758 0.53125 1.6875 0.28906 0.52344 0.67578 0.98047 1.0898 1.3984 0.42187 0.41406 0.89453 0.76953 1.3945 1.0742 0.5 0.3125 1.0469 0.54297 1.6094 0.70703zm-7.3906-4.4805c0.23047 0.80859 0.59766 1.5742 1.0195 2.2969 0.44531 0.71094 0.94922 1.3867 1.5312 1.9844 0.28516 0.30469 0.60547 0.57812 0.90234 0.86328 0.32812 0.25781 0.65625 0.51562 0.99609 0.75-0.54688-0.625-1.1055-1.2227-1.6094-1.8672-0.50391-0.64062-0.97656-1.3008-1.3945-1.9922-0.41797-0.69141-0.77734-1.4141-1.0859-2.1641-0.29688-0.75391-0.53906-1.5352-0.66016-2.3516-0.082032 0.83203 0.070312 1.6758 0.30078 2.4805zm-1.5117-3.4766c0.019531-0.55078 0.003906-1.082 0.050781-1.6094 0.035157-0.52734 0.10547-1.0469 0.19922-1.5625 0.19141-1.0312 0.50781-2.0312 0.96484-3.0195-0.40234 0.37891-0.69922 0.85547-0.94141 1.3516-0.24609 0.49609-0.41406 1.0312-0.51953 1.5742-0.19141 1.0898-0.13281 2.2344 0.24609 3.2656zm59.16 40.957c-0.023437 0.027344-0.57812 0.66016-0.49609 1.3008 0.039063 0.29297 0.19922 0.53906 0.48047 0.72656 1.0234 0.67578 5.1172 0.32812 5.2891 0.3125 0.03125 0.003906 0.44922 0.03125 0.58984-0.25781 0.14453-0.30469-0.11719-0.79688-0.80078-1.5-0.21484-0.21875-0.4375-0.44141-0.65625-0.66016-0.99609-0.99609-2.0039-2.0156-2.5117-2.8594-0.50781 0.53516-1.1836 1.1523-2.0078 1.7578 0.48047 0.43359 0.53906 0.69922 0.51562 0.83203-0.039062 0.22656-0.33984 0.31641-0.34375 0.31641l-0.035156 0.011718zm-40.188 2.1445c-0.085937 0.51953 0.26172 0.95312 0.27344 0.97266l0.039062 0.046875 6.2734 0.0625 0.027344-0.015625c0.023437-0.011719 0.59375-0.32812 0.63672-0.85156 0.027344-0.33203-0.16016-0.66016-0.55859-0.97656-0.375-0.30078-1.3633-1.707-2.5469-3.5234-0.69141 0.76953-1.6484 1.6289-2.9414 2.4219 0.015625 0.30859-0.082031 0.70703-0.58594 1.0352-0.35547 0.22656-0.56641 0.50391-0.61719 0.82812zm26.961-58.734c0.39844-0.10938 0.71875-0.14844 0.85156-0.16016 0.26172-0.30078 1.9688-2.0586 8.8086-5.4102 6.7695-3.3281 11.648-1.6992 12.672-1.1289l-0.71094 3.4414c-0.35156-0.039063-0.69141 0-0.98047 0.12109-0.44141 0.17188-0.75 0.48047-0.85938 0.87109-0.10938 0.37891-0.019532 0.78906 0.25 1.1484-1.5 1.0312-6.5391 4.75-5.5391 7.5117-0.17969 0.26172-0.35938 0.64062-0.51172 1.1094l-0.050781 0.14062-14.238-7.5625zm9.1523-2.7773 2.9688-1.6211c0.5-0.26172 1.0117-0.51172 1.5195-0.73828 0.25-0.10938 0.51172-0.23047 0.76172-0.32031 0.12891-0.058594 0.26172-0.089844 0.39062-0.12891l0.17969-0.03125 0.070312-0.011718c-0.019531-0.019532 0.21094 0.019531 0.21094 0.019531 0.94141-0.69922 2.0312-1.2695 3.2383-1.3516-0.60156-0.058593-1.2109 0.070313-1.8008 0.25-0.53906 0.17969-1.0508 0.44922-1.5312 0.76172-0.019531 0-0.039062-0.011719-0.058594-0.019531l-0.14844-0.011719c-0.078125 0.011719-0.16016 0.019531-0.23828 0.03125-0.14063 0.039063-0.28906 0.070313-0.42969 0.10938-0.28125 0.078125-0.55078 0.19141-0.80859 0.30078-0.53125 0.23047-1.0508 0.46875-1.5586 0.71875-1.0195 0.5-2.0117 1.0586-2.9883 1.6289-1.9688 1.1406-3.8711 2.3789-5.7188 3.6992 1.9922-1.0664 3.9727-2.1758 5.9414-3.2852zm8.3398 12.949c-0.011719 0.058594-0.019531 0.12109-0.019531 0.17969 0 0.35938 0.19922 0.67188 0.5 0.85156 0.48828-0.46094 1.0195-0.96875 1.5391-1.4805-0.21875-0.25-0.53906-0.41016-0.91016-0.41016-0.39844 0-0.76172 0.19141-0.96875 0.5-0.011718 0.011719-0.011718 0.019531-0.019531 0.03125l-21.473-11.422c-0.03125 0.050781-0.058594 0.089844-0.10156 0.12891-0.050781 0.050781-0.089844 0.10156-0.14062 0.14844zm-2.0586-4.1406c0.26172 0.16016 0.51172 0.51172 0.69922 1.0195 0.12109 0.30078 0.32031 1.0508 0.53906 1.8984l0.71875 0.37109c0.30859-0.32031 0.73828-0.51172 1.2109-0.51172 0.14844 0 0.30078 0.019531 0.44141 0.058594 0.03125-0.14063 0.089844-0.30078 0.14063-0.46094l0.019531-0.078125c0.19141-0.55078 1.1797-5.6602 1.1914-5.7109l0.62109-2.9883c-0.058594-0.019531-0.10938-0.050781-0.17188-0.078125-1.7617 1.1484-6.0938 4.5703-5.4102 6.4805zm3.6484 5.2891 0.0625-0.24219c0.03125 0.007813 0.70312 0.19531 1.0664 0.75391 1.1719-0.34375 3.1602-1.2734 4.5977-1.9805-1.2188-0.17969-3.1289-0.44141-4.25-0.44922-0.12891 0.12891-0.28125 0.26953-0.42969 0.42188-0.12891 0.12109-0.26172 0.25-0.39844 0.37891-0.37891 0.37109-0.80078 0.78125-1.2188 1.1719-0.14844 0.14062-0.28906 0.28906-0.44141 0.42188-0.078125 0.078125-0.17188 0.17188-0.25 0.23828 0.46094 0.03125 1.1094 0.03125 1.8906-0.078125 0.070313-0.011719 0.16406-0.035156 0.24609-0.054687-0.32031-0.42969-0.86719-0.57812-0.875-0.58203zm3.8477-11.52h-0.011719l-0.17969 0.62891c-0.011719 0.03125-0.26953 0.92187-0.30859 1.2383-0.03125 0.12891-0.35156 2.1094 0.76953 2.4492 0.10938 0.039062 0.21094 0.050781 0.32031 0.050781 0.23047 0 0.44141-0.078125 0.62109-0.25 0.12109-0.10938 0.21875-0.25 0.30078-0.39844v-0.011719l0.14844-0.39062 0.019531-0.039063v-0.011719c0.078125-0.30078 0.089843-0.60156 0.050781-0.80859 0.011719-0.19922-0.10156-0.57031-0.53125-0.66016-0.078125-0.011718-0.16016-0.019531-0.25-0.03125-0.42188-0.03125-0.80859-0.070312-0.89844-1.1211zm0.65234-1.0039c0.12109-0.39062 0.019531-0.80859-0.26953-1.1797-0.12109-0.16016-0.26172-0.30078-0.42188-0.41016 0.14062-0.76953 0.25-1.8516 0.28906-3.4102 0.32812-1.1016 0.98047-2.4805 1.7891-2.9219 0.30078-0.14844 0.51953-0.19141 0.67969-0.12891-0.015625 1.1094-0.14453 3.2188-0.75391 3.9688l0.19141 0.16016c0.5-0.62109 0.69922-2.0195 0.78125-3.1484 0.078125-0.078124 0.17188-0.16016 0.26172-0.21875 0.46094-0.30859 0.76953-0.39062 0.96875-0.25 0.25 0.17969 0.12891 0.62891 0.10938 0.69922-0.20312 0.39844-0.21484 1.1992-0.21484 1.2188-0.14062 1.0391-0.48047 1.7305-0.76172 2.1289 0.75 1.4297 0.070313 4.25-0.089843 4.6211-0.011719 0.019531-0.03125 0.070313-0.078125 0.089844-0.10156 0.16016-0.35156 1.1914-0.32031 1.8906 0.03125 0.78125 0.011719 4.1289-0.011719 6.5781v0.17188c-0.94922-0.25-2.7109-0.62891-4.9297-0.69922 0.14062-0.71094 1.3398-6.8203 1.3398-7.9883 0-0.058594 0-0.10938 0.011719-0.16016 0.26953-0.019532 0.51172-0.089844 0.73047-0.19141 0.35156-0.17969 0.60156-0.46094 0.69922-0.82031zm-3.332 14.625c0.17969-0.41016 0.23047-0.78906 0.16016-1.1289 1.4102-0.42969 3.8086-1.5781 5.2305-2.2891-0.21094 1.8281-0.69922 2.9414-0.73047 2.9883l-0.019531 0.03125c0 0.011718-0.44141 0.51953-0.35938 1.3516 0.058594 0.64062-0.14062 1.5703-0.62891 2.0391-0.23047 0.23047-0.51172 0.32813-0.80078 0.28906-0.85156-0.089844-1.2812 0.42969-1.3008 0.44922l-0.039063 0.039062h-0.050781c-0.019531 0.011719-0.32031 0.03125-0.67969 0.03125-0.30078 0-0.62891-0.019531-0.87109-0.078125-0.33984-0.078125-0.76172-0.42188-1.0312-0.66016 1.6211-1.6016 1.2422-2.7852 1.1211-3.0625zm2.5 1.8906c0.078125 0.019531 0.16016 0.03125 0.21875 0.03125 0.14062 0 0.25-0.050781 0.28125-0.12891 0.019531-0.078125 0.078125-0.14062 0.14844-0.19922 0.12891-0.12109 0.28906-0.28125 0.12109-0.58984-0.039063-0.070312-0.03125-0.089843-0.03125-0.089843 0.050781-0.019532 0.30859 0.10937 0.57812 0.28125l0.050781-0.078126c0-0.011718-0.16016-0.12891-0.37891-0.26953-0.35156-0.21094-0.83984-0.44141-1.1719-0.32031-0.14844 0.058593-0.25 0.17969-0.30859 0.35938-0.16406 0.57422 0.16406 0.90234 0.49219 1.0039zm-5.4609-1.7188c-0.29297 0.39062-0.78516 1.0391-0.14453 1.5703 0.28516 0.23828 0.51562 0.35156 0.70703 0.34766 0.57812-1.543 1.4531-2.4805 1.4648-2.4922 0.046875-0.050781 0.125-0.050781 0.17578-0.003906s0.050781 0.12891 0.003907 0.17578c-0.015626 0.015625-0.95703 1.0273-1.5078 2.6797 0.035156 0.070312 0.0625 0.14062 0.125 0.19922 0.17969 0.17578 0.44531 0.23828 0.78516 0.1875 0.007813 0.007813 0.035157 0.03125 0.046875 0.042969 1.6797-1.6445 1.0898-2.7734 1.0625-2.8242-0.019531-0.035156-0.023437-0.078124-0.007812-0.11328 0.17188-0.37891 0.22656-0.71875 0.16406-1.0156-0.13281 0.035156-0.26562 0.070313-0.375 0.085938-0.57031 0.089844-1.0703 0.10938-1.4883 0.10938-0.30469 0-0.55469-0.019531-0.76562-0.039063 0.039062 0.16016 0.0625 0.26172 0.0625 0.26953 0 0.003906 0.046875 0.30078-0.17188 0.62109-0.035156 0.066407-0.085937 0.12891-0.13672 0.19922zm5.5391-12.559c-0.070313 0.25-0.14062 0.53125-0.16016 0.67969v0.011718c0 0.011719-0.32031 1.8789 0.60156 2.1719 0.26953 0.078124 0.51172 0.03125 0.69922-0.14844 0.050781-0.039062 0.089844-0.089844 0.12891-0.14844l-0.39062 0.078126c-0.039063 0.011718-0.078125 0.011718-0.10938 0.011718-0.26172 0-0.48047-0.19141-0.62891-0.53906-0.17188-0.41016-0.26172-1.1406 0-1.3203 0.050781-0.039062 0.17969-0.10156 0.35156 0.070313 0.42969 0.42188 0.75 0.28906 0.76953 0.28906l0.03125-0.019531 0.28125 0.011719c-0.011719-0.10156-0.078126-0.28125-0.32031-0.32031-0.070313-0.019531-0.14062-0.019531-0.21875-0.03125-0.36328-0.035156-0.82422-0.078125-1.0352-0.79688zm-26.926-2.3359c0.050781-0.050781 0.089843-0.10156 0.14062-0.14844 0.039063-0.039062 0.070313-0.078125 0.10156-0.12891m-4.0195 3.5195c0.60938-0.1875 2.7227-0.60938 4.2617 1.7812 1.7812 2.7852 3.5508 6.8789 3.5195 7.793-0.003906 0.089844 0.007812 0.22656 0.015625 0.39453 0.097656 1.5391 0.35156 5.625-4.8711 6.8906l-0.1875 0.046875 0.035156-0.19141c0.29688-1.6094 1.0977-4.0547 1.6836-5.8359 0.39844-1.1953 0.73828-2.2461 0.92969-2.9727 0.59375-2.1953-2.4102-4.9453-3.0234-5.4727-0.80469-0.72266-1.5938-1.4492-2.4141-2.2227l-0.15625-0.14844zm-11.512 7.7812 0.054687 0.20312c0.51953 1.8711 0.68359 3.8945 0.73438 4.9336 0.09375 1.9805 1.4336 2.207 1.4453 2.207l7.6875 1.1406 0.015625-0.12891c0.015625-0.10938 0.015625-0.20703 0.023437-0.30469 0-0.046876 0.003907-0.09375 0.007813-0.14063l0.03125-0.51953c0.015625-0.22656 0.027344-0.42188 0.039063-0.57031 0.019531-0.19922 0.03125-0.40234 0.03125-0.62109l0.003906-0.054687c0.046875-1.0117 0.12109-2.543 0.99609-4.4766 0.40625-0.91406-0.875-2.2891-3.5234-3.7695l-0.16406-0.089844-0.042969 0.34375s-0.19922 1.3477-0.22656 1.5273c0 0-0.12109 0.72656-0.12891 0.77734-0.011719 0.042968-0.015625 0.085937-0.023438 0.13672-0.003906 0.035156-0.007812 0.070313-0.015624 0.11328l-0.09375 0.55469-0.082032 0.082031c-0.13672 0.13672-0.625 0.57422-1.2812 0.57422-0.32422 0-0.63281-0.10938-0.92578-0.32422-0.54297-0.42969-2.7891-1.1836-4.3555-1.543zm0.4375-31.891c0.27344 0.33984 0.59766 0.60547 2.0312 0.55859 0.03125 0.007813 0.070313 0.003906 0.10938 0.003906 0.015625 0 0.03125-0.003906 0.046875-0.003906 0.23438-0.007813 0.47266-0.027344 0.72266-0.042969 1.2109-0.089844 2.5938-0.19141 4.4141 0.71094 0.34766 0.16797 0.71875 0.37891 1.1055 0.625l0.98438 0.74609c0.03125 0.007812 0.09375 0.023437 0.15625 0.023437 0.058593 0 0.11719-0.011719 0.14844-0.058594 0.050781-0.078125-0.023437-0.1875-0.082031-0.26562l-0.28125-0.35156s-0.21094-0.14844-0.29688-0.83594c-0.035157-0.28125 0.023437-0.59375 0.082031-0.92969 0.09375-0.50781 0.19531-1.0859-0.027344-1.6445-0.12109-0.30859-1.2734-3.0312-4.1523-3.3398-0.019531-0.007813-2.7656-0.54297-4.5312 3.25-0.0625 0.12109-0.69141 1.2188-0.42969 1.5547zm5.0703 4.5586c0.31641 0.25781 0.63281 0.53906 0.94141 0.875l0.035156 0.035156 0.035156-0.03125c0.46094-0.42188 0.82812-0.9375 1.082-1.5391 0.29687-0.69141 0.41797-1.4219 0.34375-2.1055l-0.003907-0.027344-0.023437-0.011718c-0.25-0.13281-0.48438-0.24219-0.71094-0.33984-0.28125 0.375-0.92578 1.2188-1.4609 1.7539 0.058593 0.23828 0.21094 0.96875-0.19922 1.2305-0.007812 0.050781-0.027344 0.10938-0.039062 0.16016zm1.4648-3.2422c-1.0117-0.39063-1.8281-0.45703-2.457-0.45703-0.21094 0-0.40625 0.007813-0.60156 0.019532-0.085938 0.003906-0.16797 0.007812-0.25 0.011718h-0.054688l0.007812 0.054688c0.070313 0.47266-0.007812 0.85547-0.23047 1.1328-0.046875 0.054688-0.12109 0.082032-0.17969 0.125 0.73438 0.4375 1.4688 0.875 1.8867 1.1133 0.019531 0.011718 0.03125 0.019531 0.050781 0.03125 0.039063-0.019532 0.078125-0.050782 0.12109-0.078126l0.011719-0.011718c0.46875-0.35938 1.25-1.3555 1.6953-1.9414zm-5.4453 1.3867-0.003907 0.046875 0.046876 0.007813c0.78125 0.12109 2.1094 0.46875 3.4805 1.4414-0.085937-0.20703-0.085937-0.43359-0.035156-0.62891-0.46094-0.26172-1.293-0.75391-2.0352-1.2031-0.16406 0.066406-0.35547 0.10156-0.57422 0.10156-0.14453 0-0.28125-0.011719-0.42188-0.039062-0.12109-0.019531-0.22656-0.046875-0.32812-0.074219l-0.066406-0.019531-0.007813 0.054687c-0.023437 0.097656-0.042968 0.21094-0.054687 0.3125zm-0.94141-2.043 0.015626 0.097656c0.070312 0.48828 0.38281 1.1094 1.4531 1.2812 0.12891 0.019531 0.24609 0.03125 0.35547 0.03125 0.28906 0 0.50391-0.070313 0.64453-0.21484 0.18359-0.1875 0.23828-0.48438 0.16797-0.88281l-0.007812-0.042969-0.25 0.015625c-0.10938 0.007812-0.21875 0.011718-0.33594 0.019531h-0.42578c-0.70703 0-1.1914-0.082031-1.5273-0.25391zm7.5 19.023c-0.074218 0.47266-0.10156 1.3555 0.70703 1.6641 1.0664 0.40625 1.6914 0.6875 1.6953 0.6875l0.007813 0.003906h0.011719c0.015624 0 0.33984-0.003906 0.66016-0.23828 0.19531-0.12891 0.33594-0.33203 0.44531-0.57422-1.1953-0.25391-2.7305-1.082-3.5273-1.543zm-6.2148-8.4648c0.078125 0.35156 0.15234 0.77344 0.22656 1.2188 0.28516 1.6953 0.64062 3.8047 1.8867 4.5234 1 0.57422 2.5 1.4648 3.4688 2.0508l0.023438 0.007812c0.33594 0.20313 0.57812 0.34375 0.66406 0.39453 0 0.003906 0 0.007812-0.003906 0.011718 0.78125 0.45313 2.4219 1.3438 3.6094 1.5703 0.10156-0.078125 0.40625-0.28125 0.71875-0.20703l0.039062 0.007812 0.019531-0.03125c0.023438-0.046875 0.62891-1.1406 0.56641-2.0742 0.027343-0.050782 0.097656-0.21094 0.015625-0.44922-0.042969-0.16016-0.18359-0.41406-0.59766-0.70312-0.015626-0.011719-1.5156-1.0859-2.4062-1.5039-0.019532-0.007813-1.2695-0.375-1.6758-0.81641-0.039062-0.046875-0.089844-0.09375-0.14844-0.14453-0.039063-0.039062-0.085938-0.078125-0.13281-0.125l-0.015625-0.015625-0.011719-0.003906-0.074218-0.066407c-0.60156-0.52734-1.5078-1.3203-1.5742-2.2891-0.027344-0.36328-0.019531-0.83203-0.007813-1.3281 0.023438-1.2227 0.046876-2.6094-0.41016-3.2578-0.34375-0.50391-1.1719-1.2188-2.1055-1.2188-0.046876 0-0.09375 0-0.14063 0.003907-0.78125 0.0625-1.4297 0.63281-1.9297 1.6914-0.007813 0.019531-0.38281 1.1016-0.003906 2.7539zm7.8984 32.699c-0.35938 0.95703-0.57422 3.3086-0.34766 3.8125 0.21094 0.44141 0.33984 1.4141 0.33984 1.4258 0.007812 0.054688 0.046875 0.097657 0.10156 0.10547 0.15234 0.027344 0.32422 0.039062 0.50781 0.039062 0.96875 0 2.2266-0.30469 2.2891-0.32031 0.054688-0.011719 0.09375-0.058594 0.09375-0.11328l0.054688-0.78906c0.67969-0.042968 4.1953-0.29297 6.0312-1.0742 0.54297-0.22656 0.76562-0.42578 0.72656-0.64063-0.078125-0.42969-1.4219-0.51172-1.9922-0.53125-1.3867 0.14453-2.0781-0.40625-2.0859-0.41406-1.582-1.0078-1.8281-1.625-1.5742-3.918 0.023437-0.21484 0.050781-0.42969 0.089843-0.64062 0.29297-1.5781 1.0469-3.875 1.7109-5.8984 0.13672-0.41797 0.26172-0.80469 0.38281-1.1758-1.2422-0.55469-3.0391-0.8125-4.957 0.74219 0 0-0.27734 0.23828-0.33984 0.43359-0.40625 1.3008-0.44531 2.3359-0.48047 3.1445-0.007813 0.22656-0.015626 0.4375-0.035157 0.625-0.023437 0.24609-0.042969 0.61328-0.070312 1.0469l-0.03125 0.52344c-0.070313 1.3672-0.19141 3.0156-0.41406 3.6172zm-2.3359-14.574c-0.007813 0.050781 0.019531 0.097657 0.0625 0.125 1.6211 0.89844 4.1953 2.5703 3.8672 3.9844 1.8984-1.1875 3.6758-0.91016 4.957-0.35938 0.13281-0.42969 0.25-0.82031 0.33594-1.1406 0.58594-2.1719-2.7969-5.0938-2.9414-5.2188-1.043-0.94141-1.9609-1.7891-2.7266-2.5156-1.1328-1.0977-2.1016-2.082-2.875-2.9219-0.039062-0.042968-0.097656-0.050781-0.14844-0.027344-0.050781 0.023438-0.078125 0.082032-0.066407 0.13672 0.019532 0.10156 0.039063 0.20312 0.0625 0.29297l0.015626 0.0625-0.007813 0.054688c-0.027344 0.33594-0.070313 0.79297-0.11719 1.3125l-0.11719 1.3047c-0.13281 1.5391-0.26172 3.3164-0.24219 3.8164 0.019532 0.22266-0.003906 0.60156-0.058593 1.0938zm-10.977-3.5703c0.007813-0.011719 0.023438-0.03125 0.046875-0.050781 0.14453-0.16016 0.14453-0.16406 0.10547-0.28125-0.0625-0.19141-0.1875-0.58594-0.1875-1.6445-0.003906-0.86719 0.17969-1.4609 0.55078-1.7617 0.19531-0.16016 0.39844-0.19922 0.53125-0.20313 0.015625-0.41406 0.11719-1.6797 0.72656-2.3711 0.64062-0.73438 0.49219-4.8555 0.15234-6.4102-0.22656-1.0625-0.20313-1.4805-0.16406-2.1758 0.019531-0.34766 0.046875-0.78125 0.039063-1.4102-0.019532-1.8359 0.65625-3.0625 1.1172-3.4414 0.35156-0.27344 1.0625-1.4883 1.1406-2.207 0.078125-0.67969 0.25781-0.82031 0.39844-0.82031 0.011718 0 0.25 0.011719 0.64844 0.070313 1 0.17578 2.9336 0.73828 4.6289 2.5547 0.085938 0.085937 0.17578 0.17578 0.25781 0.27734 0.03125 0.039062 0.83203 1.0195 1.2109 2.582 0.003907 0.011719 0.34766 1.1328 0.61719 1.4805 0.28516 0.36328 1.1016 2.25 0.28906 3.5859-0.019531 0.074219-0.10938 0.40625-0.22266 0.89844l-0.046875 0.20703-0.15625-0.14062c-0.66797-0.59375-1.293-1.2422-1.3516-1.9727-0.03125-0.33203-0.023438-0.75-0.011719-1.1914v-0.19141c0.019531-1.2969 0.039062-2.6406-0.46875-3.3555-0.45312-0.67969-1.4102-1.3633-2.3672-1.3633-0.67578 0-1.6328 0.32422-2.3633 1.8711-0.003906 0.011719-0.4375 1.1758-0.035156 2.9766 0.089844 0.36328 0.16406 0.80078 0.22656 1.1992 0.29688 1.7617 0.66406 3.9531 2.0469 4.7617 0.875 0.5 2.0781 1.2148 2.9609 1.7383l0.73438 0.43359 0.0625 0.046875v0.074219c-0.011719 0.45703-0.007813 0.84766 0.007812 1.1836l0.007813 0.10547c0.003906 0.066406 0.007812 0.13281 0.023437 0.21484 0.007813 0.10547 0.019532 0.19922 0.039063 0.30469 0.019531 0.13672 0.039062 0.27344 0.066406 0.39844l0.003906 0.019531v0.019532s-0.12109 1.2578-0.23828 2.668c0 0.09375-0.011719 0.19922-0.019531 0.28906-0.003907 0.082031-0.011719 0.16406-0.019531 0.24219-0.007813 0.078125-0.015626 0.15625-0.019532 0.22656v0.042969c-0.023437 0.25391-0.042968 0.50391-0.0625 0.74219l-0.070312 1.043c-0.023438 0.4375-0.050782 0.97266-0.039063 1.2109 0 0.09375 0 0.20703-0.007812 0.32812 0 0.085938-0.007813 0.1875-0.019531 0.28125 0 0.074219-0.007813 0.16016-0.023438 0.26562-0.007812 0.058594-0.015625 0.11719-0.015625 0.19141-0.03125 0.21875-0.058594 0.44922-0.089844 0.6875-0.007812 0.074218-0.019531 0.15234-0.03125 0.23047-0.011719 0.089844-0.027343 0.17969-0.039062 0.27344-0.007813 0.066406-0.019531 0.13281-0.03125 0.20312-0.015625 0.085937-0.027344 0.17578-0.039063 0.26953-0.027344 0.1875-0.054687 0.36719-0.085937 0.54297l-0.078125 0.47266c-0.007813 0.042969-0.015625 0.089844-0.023438 0.13281-0.007812 0.054687-0.015625 0.10937-0.027344 0.15625-0.019531 0.097656-0.027343 0.17187-0.039062 0.25781l-0.085938 0.47656-0.023437 0.027344c-0.007813 0.007813-0.48438 0.49609-1.1016 0.49609-0.23828 0-0.5-0.070312-0.76562-0.27344-0.67578-0.52344-3.2969-1.3477-4.7305-1.6484l-0.070313-0.015625-0.023437-0.070312c-0.39062-1.207-0.88281-2.1172-1.4688-2.7031-0.23828-0.25-0.51172-0.44922-0.8125-0.59375-1.1445-0.55078-1.6875-0.99609-1.7539-1.4492-0.0625-0.38281 0.24609-0.70312 0.58984-1.0156zm8.5938 1.1094c-0.11328-0.55469-0.30859-1.1016-0.62109-1.5898-0.28906-0.50391-0.70703-0.92969-1.168-1.2852-0.92969-0.70312-2.1094-1.0781-3.2422-0.96875 1.0898 0.28125 2.0977 0.71094 2.9414 1.3672 0.42578 0.32031 0.81641 0.69141 1.1562 1.1094 0.35547 0.41016 0.62891 0.88672 0.93359 1.3672zm-3.707 0.82031c0.55078 0.41797 1.0625 0.88672 1.5273 1.418 0.48828 0.51562 0.89453 1.1055 1.3789 1.707-0.097656-0.75391-0.33594-1.5078-0.75-2.168-0.37891-0.68359-0.9375-1.2617-1.5508-1.75-0.625-0.47656-1.3281-0.84766-2.0781-1.0586-0.74219-0.21875-1.5273-0.3125-2.2891-0.17578 1.4141 0.54688 2.668 1.1641 3.7617 2.0273zm10.008-5.5469c0.30859-0.19922 0.54297-0.49219 0.69141-0.86719l0.007812-0.015625 0.011719-0.007813c0.085937-0.058594 0.19141-0.097656 0.28516-0.097656h0.003907l0.32812 0.082031 0.19922-0.29688c0.007813-0.011718 0.64453-1.1562 0.625-2.1953v-0.015625c0.03125-0.09375 0.046875-0.19922 0.046875-0.32422v-0.066406l0.19531 0.058594 0.015625 0.007812c0.054687 0.046875 1.3672 1.168 1.3906 1.7266 0.003906 0.085938-0.023438 0.16016-0.078125 0.21484-0.10938 0.10938-0.21875 0.23828-0.32812 0.35938-0.26562 0.30469-0.51953 0.58984-0.74219 0.66406 0.082031 0.12109 0.23438 0.39062 0.13672 0.60547-0.085938 0.17578-0.31641 0.26563-0.69141 0.26563-0.45312 0-0.75 0.066406-0.98828 0.12109-0.16797 0.039063-0.3125 0.070313-0.46094 0.070313-0.17969 0-0.37109-0.046875-0.62891-0.19531-0.023438-0.007812-0.039063-0.027343-0.039063-0.058593v-0.027344zm3.2266-1.7344c-0.003906 0.023438 0.015625 0.042969 0.035156 0.050782 0.015625 0.003906 0.03125 0 0.039063-0.011719 0.003906-0.003907 0.007812-0.011719 0.007812-0.019531 0.0625-0.56641-0.082031-0.91406-0.089843-0.92969-0.007813-0.019531-0.035157-0.035156-0.054688-0.027344-0.019531 0.007813-0.03125 0.027344-0.019531 0.050782 0 0 0.14062 0.33984 0.082031 0.88672zm-0.36328 0.4375c-0.003907 0.023438 0.015625 0.042969 0.035156 0.050782 0.015625 0.003906 0.03125 0 0.039063-0.011719 0.003906-0.003907 0.007812-0.011719 0.007812-0.019531 0.0625-0.56641-0.082031-0.91406-0.089844-0.92969-0.007812-0.019531-0.035156-0.035156-0.054687-0.027344-0.019531 0.007813-0.03125 0.027344-0.019531 0.050782 0 0.003906 0.14062 0.34375 0.082031 0.88672zm-0.3125 0.40234c0.015625 0.003906 0.03125 0 0.039062-0.011719 0.003907-0.003906 0.007813-0.011719 0.007813-0.019531 0.0625-0.56641-0.082032-0.91406-0.089844-0.92969-0.007812-0.019531-0.035156-0.035156-0.054688-0.027343-0.019531 0.007812-0.03125 0.027343-0.019531 0.050781 0 0.003906 0.14062 0.34375 0.082031 0.88672-0.003906 0.023437 0.011719 0.046875 0.035157 0.050781zm-0.71875 0.91016c0.007812 0 0.011719 0 0.019531-0.003906 0.47656-0.3125 0.65234-0.64844 0.66016-0.66016 0.011719-0.019532 0.003906-0.046875-0.011718-0.058594-0.019532-0.011719-0.039063-0.007812-0.050782 0.015625 0 0.003906-0.17578 0.32812-0.63281 0.62891-0.019532 0.011719-0.023438 0.039063-0.015625 0.058594 0.003906 0.011719 0.015625 0.019531 0.03125 0.019531zm-0.57422 0c0.007812 0 0.011719 0 0.019531-0.003906 0.47656-0.3125 0.65234-0.64844 0.66016-0.66016 0.011718-0.019532 0.003906-0.046875-0.011719-0.058594-0.019531-0.011719-0.039063-0.007812-0.050781 0.015625 0 0.003906-0.17578 0.32812-0.63281 0.62891-0.019531 0.011719-0.023437 0.039063-0.015625 0.058594 0.007812 0.011719 0.019531 0.019531 0.03125 0.019531zm-0.49219-0.042968c0.007813 0 0.011719 0 0.019532-0.003907 0.47656-0.3125 0.65234-0.64844 0.66016-0.66016 0.011719-0.019531 0.003906-0.046875-0.011719-0.058594-0.019531-0.011719-0.039062-0.007812-0.050781 0.015625 0 0.003906-0.17578 0.32812-0.63281 0.62891-0.019532 0.011719-0.023438 0.039063-0.015626 0.058594 0.007813 0.011719 0.019532 0.019532 0.03125 0.019532zm-49.922 52.656c-0.44922-2.0547 2.3633-8.9453 2.4844-9.2383 0.42188-1.1211 1.4453-4.2109 1.082-5.0234-0.49219-1.1172 1.8086-2.9883 1.8867-3.0469 2.5547-3.1992 3.5859-6.7148 2.9453-7.9961-0.16797-0.33594-0.28125-0.73047-0.36719-1.0625-0.027344-0.074219-0.039063-0.14844-0.050782-0.21094 0-0.015624-0.003906-0.03125-0.007812-0.042968-0.10156-0.625 0.29688-0.91406 0.5-0.97266 1.6562-0.78516 1.7383-2.4961 1.7383-2.5117l0.003906-0.13672 0.13672 0.015625c0.44922 0.054687 0.61719 1.0312 0.67578 1.5469 0.57812-0.64062 0.77344-1.5273 0.83594-2.1836h0.125l0.015625 0.003906 0.09375-0.054687c0.32031 0.55859 0.61328 1.0391 0.90625 1.4648 0.070312 0.10938 0.13672 0.21484 0.21875 0.32422 0.36328 0.51562 0.74219 1 1.1406 1.4492 0.074219 0.10156 0.15625 0.19531 0.26172 0.28906 0.42578 0.47266 0.85937 0.89062 1.2891 1.2383 0.17578 0.15234 0.32812 0.27344 0.47656 0.375 0.14453 0.11719 0.29688 0.22656 0.46094 0.32422 0.79297 0.53125 1.4219 0.80859 1.8125 0.94531l0.18359 0.066407-0.13281 0.14062c-1.3281 1.375-2.7891 2.6367-3.0703 2.8789-1.2266 1.0391-2.6875 3.0195-2.6914 3.0234-1.4492 2.6055-4.3555 5.8672-4.6445 6.1875-0.41406 2.0039-1.8555 2.9922-2.1602 3.1797-0.22656 1.5078-1.7656 6.543-2.5039 8.5-0.95312 0.23438-2.2148 0.46484-3.6445 0.52734zm-1.1406 5.9766c0.25781 0.54688 1.4688 0.6875 2.6328 0.6875 1.0781 0 2.1172-0.11719 2.3359-0.14453 0.019532-0.003907 0.31641-0.0625 0.46094-0.35938 0.14844-0.30859 0.066406-0.74609-0.23438-1.293-0.58594-1.0781-1.0156-2.6875-0.71875-4.293-0.86328 0.1875-1.9062 0.35156-3.0703 0.41406 0.39063 1.5391 0.375 2.5195-0.0625 2.7227-0.91016 0.43359-1.8047 1.2852-1.3438 2.2656zm-1.9062-25.734c-0.039062-0.17969-0.03125-0.21875 0.28906-0.94922 0.60938-1.4219 1.1602-2.8984 1.5195-3.8906-0.57031 0.64062-1.3516 1.2109-1.6602 1.4219l-0.44141 0.26953 0.26172-0.44141c0.10938-0.19141 0.26172-0.46094 0.46875-0.82812l0.92969-1.6211c1.4297-2.5195 1.8008-4.7891 2.1914-7.1797 0.26172-1.5781 0.53125-3.2109 1.1211-4.9297 1.1797-3.3906 2.1211-4.3984 3.4297-5.7891 0.33984-0.37109 0.69922-0.75 1.1016-1.2109 1.0781-1.2695 4.2617-1.5703 6.7383-1.6016h0.35938l-0.28125 0.23047c-2.3398 1.8594-3.5391 4.1719-3.5898 6.8711-0.011718 0.37109 0.011719 0.71875 0.039063 1.0586 0.019531 0.28125 0.058594 0.57031 0.12109 0.85938 0.050781 0.26172 0.10156 0.51953 0.17188 0.78906 0.058594 0.23828 0.12109 0.44922 0.19141 0.66016l0.011719 0.039063c0.03125 0.089843 0.050781 0.19141 0.089843 0.28906 0.089844 0.26172 0.17969 0.51172 0.28125 0.76953 0.078126 0.23828 0.17188 0.46875 0.28125 0.73047 0.070313 0.23047 0.17188 0.44922 0.26172 0.67188l0.019531 0.019531c0.078126 0.21875 0.17188 0.42188 0.26172 0.62109l0.03125 0.050781c0.070313 0.17969 0.14062 0.35156 0.21875 0.51953l0.019531 0.050782c0.019532 1.3516-0.19922 2.0898-0.21094 2.1211l-0.23828-0.050782c0.16016-1.5195-0.48828-2.9609-0.91016-3.6914 0.51953 3.7109-0.73828 4.9102-0.80078 4.9609l-0.28906 0.26953 0.089844-0.39062c0.51172-2.2891 0.039062-4.0703-0.23828-4.8398-0.23828 1.6484-0.64844 3.0508-0.96094 3.9609-0.44922 1.3086-0.87891 2.1406-0.96875 2.2891l-0.23828 0.39844v-0.46094c0-0.058594 0.03125-0.12109 0.078124-0.21875 0.28125-0.55859 0.32813-1.8516 0.32031-2.6797-0.44922 1.2812-1.6484 3.6016-1.7891 3.8711-0.37109 3.0117-2.1289 7.8008-2.25 8.1094 0 0.039063-0.019531 0.17188-0.039062 0.37891-1.8594 3.2188-5.1914 8.1484-7.6406 7.25 1.25-5.125 1.7969-8.0547 1.6484-8.7578zm3.9492-3.8477c0.73828-2.4609 1.25-4.9805 1.7383-7.4883 0.41016-2.4883 1.0508-4.9609 1.9609-7.3086 0.44141-1.1797 1-2.3203 1.6719-3.3789 0.66016-1.0703 1.4492-2.1016 2.5312-2.7812-1.1719 0.53906-2.0586 1.5508-2.8281 2.5703-0.75 1.0508-1.3789 2.1914-1.8984 3.3711-1.0508 2.3711-1.6914 4.8789-2.1719 7.3984-0.42969 2.5117-0.94141 5-1.5508 7.4609-0.32031 1.2305-0.66016 2.4609-1.0781 3.6602-0.41016 1.1914-0.85156 2.3984-1.5586 3.4492 1.6133-2.0039 2.4062-4.5352 3.1836-6.9531z"/>
<text x="0.0" y="117.5" font-size="5.0" font-weight="bold" font-family="Arbeit Regular, Helvetica, Arial-Unicode, Arial, Sans-serif" fill="#000000">Created by satrio</text><text x="0.0" y="122.5" font-size="5.0" font-weight="bold" font-family="Arbeit Regular, Helvetica, Arial-Unicode, Arial, Sans-serif" fill="#000000">from Noun Project</text></svg>