<?xml version="1.0" encoding="iso-8859-1"?>

<svg fill="#000000" height="512" width="512" version="1.1" xmlns="http://www.w3.org/2000/svg" xmlns:xlink="http://www.w3.org/1999/xlink" 
	 viewBox="0 0 512 512" xml:space="preserve">
<g>
	<g>
		<path d="M394.149,121.325L275.452,2.629c-5.615-5.615-15.206-1.638-15.206,6.297v118.287c0,5.146,4.173,9.318,9.318,9.318h118.287
			C395.787,136.531,399.764,126.932,394.149,121.325z"/>
	</g>
</g>
<g>
	<g>
		<path d="M396.777,230.397v-68.266c0-4.71-3.823-8.533-8.533-8.533H251.713c-4.71,0-8.533-3.823-8.533-8.533V8.534
			c0-4.71-3.823-8.533-8.533-8.533H46.916c-4.71,0-8.533,3.823-8.533,8.533v469.326c0,4.71,3.823,8.533,8.533,8.533l177.081,0.008
			c3.251,0,6.221-1.852,7.654-4.779c1.434-2.918,1.084-6.4-0.904-8.977c-19.464-25.164-29.892-55.252-30.225-87.09
			c-0.666-64.34,41.557-122.878,103.388-140.695c27.374-7.885,55.73-7.825,81.978-0.256c4.54,1.271,9.258-1.306,10.564-5.837
			C396.974,236.967,396.777,231.523,396.777,230.397z"/>
	</g>
</g>
<g>
	<g>
		<path d="M472.552,367.32c-7.245-56.993-53.264-103.013-110.257-110.257c-83.608-10.624-154.246,60.005-143.614,143.614
			c7.245,56.993,53.264,103.013,110.257,110.257C412.538,521.566,483.176,450.928,472.552,367.32z M385.778,415.635l-34.133,34.133
			c-1.664,1.664-3.848,2.5-6.033,2.5s-4.369-0.836-6.033-2.5l-34.133-34.133c-3.336-3.336-3.336-8.729,0-12.066
			s8.729-3.336,12.066,0l12.279,12.279c2.688,2.688,7.287,0.785,7.287-3.021V324.27c0-4.71,3.823-8.533,8.533-8.533
			s8.533,3.823,8.533,8.533v88.566c0,3.797,4.599,5.709,7.287,3.021l12.279-12.279c3.336-3.336,8.729-3.336,12.066,0
			C389.115,406.914,389.115,412.299,385.778,415.635z"/>
	</g>
</g>
<defs>
    <linearGradient id="grad1" x1="0" x2="0" y1="0" y2="1">
        <stop offset="0%" class="stop1" />
        <stop offset="25%" class="stop2"/>
        <stop offset="50%" class="stop3"/>
        <stop offset="100%" class="stop4" />
    </linearGradient>
</defs>
<style>
    * {
        fill: url(#grad1)
    }
    
    .stop1 {
      stop-color: #001233;
    }
    .stop2 {
      stop-color: #001845;
    }
    .stop3 {
      stop-color: #211565;
    }
    .stop4 {
      stop-color: #25177A;
    }
</style>
</svg>