<svg xmlns="http://www.w3.org/2000/svg" xmlns:xlink="http://www.w3.org/1999/xlink" version="1.1" x="0px" y="0px" viewBox="0 0 128 128" style="enable-background:new 0 0 128 128;" xml:space="preserve">
<g><g><g><g>
<path d="M111,1.9c-0.2,0.1-0.4,0.1-0.6,0.2c-2.3,0.7-4.5,1.6-6.6,2.9c-13.4,8.3-25.6,18.6-37.5,28.9C56,43,46.1,52.7,36.9,62.9      l20.6,20.6C67.7,74.2,77.3,64.4,86.4,54c4.8-5.4,9.5-11,14.1-16.6c3.1,6.9,1.9,15.4-3.8,21.1L69.3,85.8c-1.2,1.2-1.2,3.1,0,4.3      c1.2,1.2,3.1,1.2,4.3,0L101,62.8c8.3-8.3,9.5-21.1,3.6-30.7c3.8-5,7.5-10.2,10.8-15.6c1.3-2,2.2-4.3,2.9-6.6      c0.1-0.2,0.1-0.4,0.2-0.6c0.7-2.2-0.1-4.4-1.5-5.9C115.4,2,113.3,1.3,111,1.9z"/>
<path d="M13.7,100.8C13.7,100.8,13.7,100.8,13.7,100.8c-0.3,1.1-0.3,2.1,0,3l-3.7,3.7c-0.8,0.8-0.8,2.1,0,2.9      c0.8,0.8,2.1,0.8,2.9,0l3.7-3.7c0.9,0.3,1.9,0.4,2.9,0c0,0,0,0,0.1,0c4.8-1,12.9-2.9,13.3-3.1c3.5-1.6,17.7-14,20.6-16.6      L33.3,66.9C30.8,69.8,18.4,84,16.7,87.5C16.6,87.8,14.7,96,13.7,100.8z"/></g></g><g>
<path d="M118.7,126.3H9.3c-2,0-3.6-1.6-3.6-3.6s1.6-3.6,3.6-3.6h109.3c2,0,3.6,1.6,3.6,3.6S120.6,126.3,118.7,126.3z"/></g></g></g>
<defs>
    <linearGradient id="grad1" x1="0" x2="0" y1="0" y2="1">
        <stop offset="0%" class="stop1" />
        <stop offset="25%" class="stop2"/>
        <stop offset="50%" class="stop3"/>
        <stop offset="100%" class="stop4" />
    </linearGradient>
</defs>
<style>
    * {
        fill: url(#grad1)
    }
    
    .stop1 {
      stop-color: #001233;
    }
    .stop2 {
      stop-color: #001845;
    }
    .stop3 {
      stop-color: #211565;
    }
    .stop4 {
      stop-color: #25177A;
    }
</style>
</svg>